<?xml version="1.0" encoding="utf-8"?>
<!-- Generator: Adobe Illustrator 22.1.0, SVG Export Plug-In . SVG Version: 6.00 Build 0)  -->
<svg version="1.1" id="Layer_1" xmlns="http://www.w3.org/2000/svg" xmlns:xlink="http://www.w3.org/1999/xlink" x="0px" y="0px"
	 viewBox="0 0 367.4 67.1" style="enable-background:new 0 0 367.4 67.1;" xml:space="preserve">
<style type="text/css">
	.st0{fill:#221F20;}
</style>
<title>BBB.OriginalArtboard 1_1</title>
<path class="st0" d="M32.9,0c-0.7,0-1.4,0-2.1,0.1l0.1,1.8c0.7,0,1.3-0.1,1.9-0.1c17.5,0,31.8,14.2,31.8,31.8S50.4,65.3,32.8,65.3
	c-0.7,0-1.3,0-1.9-0.1L30.8,67c0.7,0.1,1.4,0.1,2.1,0.1c18.6,0.3,33.8-14.5,34.1-33S52.5,0.3,34,0C33.6,0,33.2,0,32.9,0"/>
<path class="st0" d="M1.2,35.5l-1.8,0.1c0.1,1.3,0.3,2.7,0.5,4l1.7-0.3C1.4,38,1.3,36.8,1.2,35.5"/>
<path class="st0" d="M4.2,50.9c0.7,1.2,1.5,2.3,2.3,3.3l1.4-1.1c-0.8-1-1.5-2.1-2.2-3.2L4.2,50.9z"/>
<path class="st0" d="M0.9,43.5c0.4,1.3,0.9,2.6,1.4,3.8L4,46.5c-0.5-1.2-1-2.3-1.3-3.6L0.9,43.5z"/>
<path class="st0" d="M7.9,14L6.5,13c-0.8,1.1-1.6,2.2-2.3,3.3l1.6,0.9C6.4,16,7.1,15,7.9,14"/>
<path class="st0" d="M1.6,27.8l-1.8-0.3c-0.3,1.3-0.4,2.7-0.5,4l1.8,0.1C1.3,30.4,1.4,29.1,1.6,27.8"/>
<path class="st0" d="M3.9,20.6l-1.7-0.8c-0.6,1.3-1,2.5-1.4,3.8l1.7,0.5C2.9,22.9,3.4,21.7,3.9,20.6"/>
<path class="st0" d="M15.5,62.2c1.2,0.7,2.3,1.3,3.6,1.9l0.8-1.7c-1.2-0.5-2.3-1.1-3.4-1.8L15.5,62.2z"/>
<path class="st0" d="M13.3,8.6l-1.1-1.4c-1.1,0.8-2.1,1.8-3,2.7l1.3,1.3C11.3,10.3,12.3,9.4,13.3,8.6"/>
<path class="st0" d="M22.9,65.6c1.3,0.4,2.6,0.8,3.9,1l0.3-1.8c-1.3-0.3-2.5-0.5-3.7-0.9L22.9,65.6z"/>
<path class="st0" d="M27.1,2.3l-0.3-1.8c-1.3,0.3-2.7,0.6-3.9,1l0.6,1.7C24.6,2.8,25.9,2.5,27.1,2.3"/>
<path class="st0" d="M19.8,4.6L19,2.9c-1.3,0.6-2.4,1.2-3.6,1.9l0.9,1.5C17.5,5.7,18.6,5.1,19.8,4.6"/>
<path class="st0" d="M9.2,57.3c0.9,0.9,2,1.8,3,2.7l1.1-1.4c-1-0.8-1.9-1.6-2.8-2.5L9.2,57.3z"/>
<path class="st0" d="M103.5,42c-0.8-0.3-1.3-0.7-1.9-1.2c-0.6-0.6-1-1.3-1.2-2.1c-0.3-1-0.4-2-0.4-3.1v-0.3h2.5v0.3
	c0,0.8,0.1,1.5,0.2,2.3c0.1,0.5,0.3,1,0.7,1.4c0.3,0.3,0.7,0.6,1.1,0.8c0.5,0.2,1,0.3,1.6,0.3c0.8,0.1,1.8-0.3,2.4-0.8
	c0.7-0.8,0.9-1.8,0.8-2.8v-15h2.6v15.2c0,0.8-0.1,1.5-0.3,2.3c-0.3,0.7-0.6,1.3-1.1,1.8c-0.5,0.5-1.2,0.9-1.8,1.2
	C106.8,42.5,105.1,42.5,103.5,42"/>
<path class="st0" d="M118.5,41.8c-0.8-0.4-1.6-1-2.3-1.7c-0.7-0.8-1.1-1.6-1.4-2.4c-0.7-1.9-0.7-4.1,0-6c0.3-0.9,0.8-1.8,1.4-2.4
	c0.6-0.7,1.3-1.3,2.3-1.7c1.9-0.8,4-0.8,5.9,0c0.8,0.4,1.6,1,2.3,1.7c0.6,0.8,1.1,1.6,1.4,2.4c0.7,1.9,0.7,4.1,0,6
	c-0.3,0.9-0.8,1.8-1.4,2.4c-0.6,0.7-1.4,1.3-2.3,1.7C122.5,42.6,120.3,42.6,118.5,41.8 M123.5,40c0.6-0.3,1.1-0.8,1.5-1.3
	c0.4-0.6,0.8-1.2,0.9-1.8c0.4-1.5,0.4-3.1,0-4.5c-0.2-0.7-0.5-1.3-0.9-1.8c-0.4-0.5-0.9-0.9-1.5-1.3c-0.7-0.3-1.3-0.5-2-0.4
	c-0.8,0-1.4,0.2-2.1,0.4c-0.6,0.3-1.1,0.8-1.5,1.3c-0.4,0.6-0.8,1.2-0.9,1.8c-0.4,1.5-0.4,3.1,0,4.5c0.2,0.7,0.5,1.3,0.9,1.8
	c0.4,0.5,0.9,0.9,1.5,1.3c0.7,0.3,1.3,0.5,2.1,0.4C122.1,40.4,122.8,40.3,123.5,40"/>
<path class="st0" d="M131.7,41c-1.2-1-1.8-2.3-1.8-3.8h2.3c0.1,0.6,0.3,1.1,0.5,1.6c0.3,0.4,0.6,0.8,0.9,1c0.4,0.3,0.8,0.4,1.3,0.5
	c0.5,0.1,1,0.2,1.5,0.2c0.9,0.1,1.8-0.2,2.6-0.7c0.5-0.4,0.8-1.1,0.8-1.8c0-0.3-0.1-0.8-0.2-1c-0.2-0.3-0.4-0.5-0.7-0.7
	c-0.3-0.3-0.8-0.4-1.2-0.5c-0.5-0.2-1.1-0.3-1.8-0.4c-0.8-0.2-1.4-0.3-2.1-0.5c-0.6-0.2-1.2-0.4-1.8-0.8c-0.5-0.3-0.9-0.8-1.3-1.3
	c-0.3-0.6-0.5-1.3-0.4-1.9c-0.1-1.2,0.5-2.3,1.3-2.9c1.2-0.8,2.5-1.2,3.9-1.1c1.5-0.1,3,0.3,4.2,1.3c0.9,0.8,1.6,2.1,1.7,3.3h-2.3
	c0-0.8-0.4-1.6-1-2.1c-0.8-0.5-1.6-0.8-2.5-0.7c-0.8-0.1-1.6,0.2-2.3,0.6c-0.4,0.3-0.7,0.9-0.7,1.5c0,0.3,0.1,0.7,0.3,1
	c0.2,0.3,0.5,0.5,0.8,0.7c0.4,0.2,0.8,0.3,1.3,0.4l1.7,0.3c0.8,0.2,1.4,0.3,2.1,0.5c0.6,0.2,1.2,0.4,1.8,0.8
	c0.5,0.3,0.9,0.8,1.2,1.3c0.3,0.7,0.5,1.3,0.4,2.1c0,0.7-0.2,1.3-0.4,1.9s-0.7,1.1-1.2,1.4c-0.6,0.4-1.2,0.7-1.8,0.8
	c-0.8,0.2-1.6,0.3-2.3,0.3C134.7,42.5,133,42,131.7,41"/>
<path class="st0" d="M148,41.8c-0.8-0.4-1.6-0.9-2.3-1.7c-0.6-0.8-1.1-1.6-1.4-2.4c-0.7-1.9-0.7-4.1,0-6c0.3-0.9,0.8-1.8,1.4-2.4
	c0.6-0.7,1.3-1.3,2.2-1.7c0.9-0.4,1.8-0.6,2.8-0.6c1,0,2,0.2,2.9,0.6c0.8,0.4,1.6,0.9,2.1,1.7c0.6,0.8,1,1.7,1.3,2.6
	c0.3,1.1,0.4,2.2,0.4,3.3H146c0,0.7,0.2,1.4,0.4,2.1c0.3,0.6,0.5,1.2,0.9,1.7s0.9,0.8,1.4,1.1c0.6,0.3,1.3,0.4,2,0.4
	c0.9,0,1.8-0.3,2.7-0.8c0.8-0.6,1.3-1.3,1.4-2.3h2.3c-0.3,1.4-1,2.8-2.2,3.7c-1.2,0.9-2.7,1.3-4.2,1.3C150,42.4,148.9,42.1,148,41.8
	 M149,29c-0.5,0.3-1,0.6-1.3,1c-0.4,0.4-0.7,0.9-0.9,1.5s-0.4,1.3-0.5,1.8h8.9c0-1.3-0.4-2.5-1.2-3.5c-0.8-0.8-1.9-1.3-3.1-1.3
	C150.2,28.7,149.5,28.7,149,29"/>
<path class="st0" d="M174.3,21.6c0.8,0,1.7,0.2,2.4,0.4c1.4,0.5,2.5,1.5,3.1,2.9c0.3,0.8,0.4,1.5,0.4,2.3c0.1,1.1-0.3,2.2-0.8,3.2
	c-0.7,0.9-1.6,1.6-2.7,1.8v0.1c0.5,0.2,0.9,0.4,1.3,0.7c0.3,0.3,0.7,0.7,0.8,1c0.3,0.5,0.4,0.9,0.5,1.5c0.2,0.7,0.3,1.3,0.3,2
	c0.1,0.8,0.1,1.5,0.2,2c0.1,0.4,0.1,0.8,0.3,1.3c0.1,0.3,0.2,0.5,0.3,0.8c0.1,0.2,0.2,0.3,0.3,0.3v0.1h-2.8
	c-0.1-0.1-0.3-0.3-0.3-0.4c-0.1-0.3-0.2-0.5-0.2-0.8c-0.1-0.3-0.1-0.8-0.2-1.3c-0.1-0.6-0.1-1.3-0.2-2.1c0-1.2-0.3-2.3-1.1-3.2
	c-0.8-0.7-1.9-1-3-0.9h-5.7v8.6h-2.5V21.6H174.3z M173.4,31.3c1.2,0.1,2.3-0.3,3.2-1c0.8-0.8,1.1-1.7,1.1-2.8c0.1-1-0.3-2-0.9-2.8
	c-0.7-0.7-1.7-0.9-3.2-0.9h-6.2v7.4H173.4z"/>
<path class="st0" d="M186.2,41.8c-0.8-0.4-1.6-1-2.3-1.7c-0.6-0.8-1.1-1.6-1.4-2.4c-0.7-1.9-0.7-4.1,0-6c0.3-0.9,0.8-1.8,1.4-2.4
	c0.6-0.7,1.4-1.3,2.3-1.7c1.9-0.8,4-0.8,5.9,0c0.8,0.4,1.6,1,2.3,1.7c0.7,0.8,1.1,1.6,1.4,2.4c0.7,1.9,0.7,4.1,0,6
	c-0.3,0.9-0.8,1.8-1.4,2.4c-0.6,0.7-1.4,1.3-2.3,1.7C190.2,42.6,188.1,42.6,186.2,41.8 M191.2,40c0.6-0.3,1.1-0.8,1.5-1.3
	c0.4-0.6,0.8-1.2,0.9-1.8c0.4-1.5,0.4-3.1,0-4.5c-0.2-0.7-0.5-1.3-0.9-1.8c-0.4-0.5-0.9-0.9-1.5-1.3c-0.7-0.3-1.3-0.5-2.1-0.4
	c-0.8,0-1.4,0.2-2.1,0.4c-0.6,0.3-1.1,0.8-1.5,1.3c-0.4,0.6-0.8,1.2-0.9,1.8c-0.4,1.5-0.4,3.1,0,4.5c0.2,0.7,0.5,1.3,0.9,1.8
	c0.4,0.5,0.9,0.9,1.5,1.3c0.7,0.3,1.3,0.5,2.1,0.4C189.9,40.4,190.6,40.3,191.2,40"/>
<path class="st0" d="M201.5,41.9c-0.8-0.3-1.5-0.9-2.1-1.6c-0.6-0.8-1-1.6-1.3-2.4c-0.3-1-0.5-2.1-0.4-3.2c0-1.1,0.2-2.2,0.5-3.3
	c0.3-0.9,0.8-1.8,1.3-2.4c0.6-0.7,1.3-1.2,2.1-1.5c0.8-0.3,1.7-0.5,2.5-0.5c0.9,0,1.9,0.3,2.8,0.7c0.8,0.4,1.4,1,1.8,1.8h0.1v-7.7
	h2.3v20.4h-2.3v-1.8h-0.1c-0.5,0.7-1.2,1.3-1.9,1.7c-0.8,0.4-1.8,0.6-2.7,0.6C203.3,42.4,202.4,42.3,201.5,41.9 M206.5,40
	c0.6-0.3,1.1-0.7,1.4-1.2c0.4-0.6,0.7-1.2,0.8-1.8c0.2-0.8,0.3-1.5,0.3-2.3c0-0.8-0.1-1.6-0.3-2.3c-0.2-0.7-0.5-1.3-0.9-1.8
	c-0.4-0.5-0.9-0.9-1.5-1.2c-0.7-0.3-1.3-0.4-2-0.4c-0.7,0-1.3,0.2-1.8,0.4c-0.5,0.3-1,0.8-1.3,1.3c-0.3,0.6-0.7,1.2-0.8,1.8
	c-0.3,1.5-0.3,3.1,0,4.6c0.2,0.7,0.4,1.3,0.8,1.8c0.3,0.5,0.8,0.9,1.3,1.2c0.6,0.3,1.2,0.4,1.8,0.4C205,40.5,205.8,40.4,206.5,40"/>
<path class="st0" d="M216.6,29.7c0.4-0.8,1.1-1.3,1.8-1.8c0.8-0.5,1.7-0.8,2.6-0.8c0.2,0,0.3,0,0.5,0s0.3,0.1,0.4,0.2v2.3h-0.1
	c-0.2-0.1-0.3-0.1-0.5-0.1s-0.3,0-0.6,0c-1.1,0-2.2,0.4-3,1.2c-0.4,0.4-0.8,0.8-0.9,1.4c-0.3,0.6-0.3,1.3-0.3,1.8v8.2h-2.3V27.2h2.3
	L216.6,29.7L216.6,29.7z"/>
<path class="st0" d="M226.4,41.9h-2.3V27.2h2.3L226.4,41.9z M228.4,21.3l-2.2,3.6h-1.9l1.3-3.6H228.4z"/>
<path class="st0" d="M230.9,45.8c-1-0.7-1.7-1.8-1.8-3h2.2c0.1,0.8,0.6,1.4,1.3,1.8c0.9,0.3,1.8,0.6,2.8,0.5
	c1.1,0.1,2.3-0.3,3.2-0.9c0.8-0.8,1.2-1.8,1.1-2.8v-2.1h-0.1c-0.5,0.7-1.1,1.3-1.8,1.7c-0.8,0.4-1.7,0.7-2.6,0.6
	c-0.9,0-1.8-0.2-2.6-0.5c-0.8-0.3-1.5-0.8-2-1.5c-0.6-0.7-1-1.4-1.3-2.3c-0.7-1.9-0.7-4,0-6c0.3-0.8,0.8-1.6,1.3-2.3
	c0.6-0.6,1.3-1.1,2-1.4c0.8-0.3,1.6-0.5,2.4-0.5c0.9,0,1.8,0.2,2.7,0.6c0.8,0.4,1.3,1,1.8,1.7h0.1v-1.9h2.3v14
	c0,0.8-0.2,1.7-0.4,2.5c-0.3,0.7-0.8,1.3-1.3,1.8c-0.6,0.5-1.3,0.8-2.1,1.1c-0.8,0.3-1.8,0.3-2.7,0.3
	C233.8,47,232.3,46.5,230.9,45.8 M237.4,39.1c0.6-0.3,1-0.7,1.3-1.2c0.3-0.5,0.6-1.1,0.8-1.8c0.2-0.8,0.3-1.4,0.3-2.2
	c0.1-1.3-0.3-2.7-1.1-3.8c-0.8-1-2.1-1.5-3.4-1.4c-1.3-0.1-2.4,0.5-3.1,1.5c-0.8,1.2-1.1,2.5-1,3.8c-0.1,1.3,0.3,2.8,1.1,3.8
	c0.8,1,1.9,1.5,3.1,1.4C235.9,39.5,236.7,39.4,237.4,39.1"/>
<path class="st0" d="M254.3,39.9L254.3,39.9c-0.6,0.7-1.2,1.3-1.8,1.8c-0.8,0.4-1.7,0.7-2.6,0.7c-1.3,0.1-2.6-0.4-3.6-1.3
	c-0.9-0.9-1.4-2.3-1.3-3.6V27.2h2.3v10.1c-0.1,0.8,0.3,1.7,0.8,2.3c0.7,0.6,1.6,0.8,2.4,0.8c0.6,0,1.1-0.1,1.6-0.3
	c0.4-0.2,0.8-0.5,1.3-0.8c0.3-0.4,0.6-0.8,0.8-1.3c0.2-0.5,0.3-1.1,0.3-1.6v-9h2.3v14.7h-2.3L254.3,39.9z"/>
<path class="st0" d="M263.1,41.8c-0.8-0.4-1.6-0.9-2.3-1.7c-0.6-0.8-1.1-1.6-1.4-2.4c-0.3-1-0.5-2-0.5-3c0-1,0.2-2,0.5-3
	c0.3-0.9,0.8-1.8,1.4-2.4c0.6-0.7,1.3-1.3,2.2-1.7c0.9-0.4,1.8-0.6,2.8-0.6c1,0,2,0.2,2.9,0.6c0.8,0.4,1.6,0.9,2.1,1.7
	c0.6,0.8,1,1.7,1.3,2.6c0.3,1.1,0.4,2.2,0.4,3.3h-11.4c0,0.8,0.2,1.4,0.3,2.2c0.3,0.6,0.5,1.2,0.9,1.7c0.4,0.5,0.9,0.8,1.4,1.1
	c0.6,0.3,1.3,0.4,2,0.4c0.9,0.1,1.8-0.3,2.7-0.8c0.8-0.6,1.3-1.3,1.4-2.3h2.3c-0.3,1.4-1,2.8-2.2,3.7c-1.2,0.9-2.7,1.3-4.2,1.3
	C265,42.4,263.9,42.2,263.1,41.8 M264.1,29.1c-0.5,0.3-1,0.6-1.3,1c-0.4,0.4-0.7,1-0.9,1.5c-0.3,0.6-0.4,1.3-0.5,1.8h8.9
	c0-1.3-0.4-2.5-1.3-3.5c-0.8-0.8-1.9-1.3-3.1-1.3C265.3,28.7,264.6,28.8,264.1,29.1"/>
<polygon class="st0" points="282,29.3 282,29.2 274.3,29.2 274.3,27.2 285.2,27.2 285.2,28.7 276.8,39.8 276.8,39.9 285.6,39.9 
	285.6,41.9 273.8,41.9 273.8,40.2 "/>
<rect x="286.8" y="33.1" class="st0" width="7.6" height="2.1"/>
<polygon class="st0" points="311.2,21.6 311.2,23.9 300,23.9 300,30.2 309.3,30.2 309.3,32.4 300,32.4 300,41.9 297.4,41.9 
	297.4,21.6 "/>
<path class="st0" d="M315.5,41.8c-0.8-0.4-1.6-0.9-2.3-1.7c-0.6-0.8-1.1-1.6-1.4-2.4c-0.3-1-0.5-2-0.5-3c0-1,0.2-2,0.5-3
	c0.3-0.9,0.8-1.8,1.4-2.4c0.6-0.7,1.3-1.3,2.2-1.7c0.9-0.4,1.8-0.6,2.8-0.6s2,0.2,2.9,0.6c0.8,0.4,1.6,0.9,2.1,1.7
	c0.6,0.8,1,1.7,1.3,2.6c0.3,1.1,0.4,2.2,0.4,3.3h-11.4c0,0.7,0.2,1.4,0.4,2.1c0.3,0.6,0.5,1.2,0.9,1.7c0.4,0.5,0.9,0.8,1.4,1.1
	c0.6,0.3,1.3,0.4,2,0.4c0.9,0,1.8-0.3,2.7-0.8c0.8-0.6,1.3-1.3,1.4-2.3h2.3c-0.3,1.4-1,2.8-2.2,3.7c-1.2,0.9-2.7,1.3-4.2,1.3
	C317.5,42.4,316.4,42.1,315.5,41.8 M316.5,29c-0.5,0.3-1,0.6-1.3,1c-0.4,0.4-0.7,0.9-0.9,1.5c-0.3,0.6-0.4,1.3-0.5,1.8h8.9
	c0-1.3-0.4-2.5-1.3-3.5c-0.8-0.8-1.9-1.3-3.1-1.3C317.8,28.7,317.2,28.7,316.5,29"/>
<rect x="327.5" y="21.6" class="st0" width="2.3" height="20.4"/>
<path class="st0" d="M335.3,24.5H333v-2.8h2.3V24.5z M335.3,42H333V27.2h2.3V42z"/>
<polygon class="st0" points="346.1,29.3 346.1,29.2 338.3,29.2 338.3,27.2 349.3,27.2 349.3,28.7 340.8,39.8 340.8,39.9 349.6,39.9 
	349.6,41.9 337.9,41.9 337.9,40.2 "/>
<path class="st0" d="M358.1,21.5l1.1,2.8c0.1,0.2,0.1,0.3,0.2,0.5l0.2,0.5l0.2,0.6l0,0c0.1-0.2,0.1-0.4,0.2-0.6l0.2-0.5
	c0.1-0.2,0.1-0.3,0.2-0.5l1-2.8h0.9v5h-0.7v-3.1c0-0.1,0-0.3,0-0.4s0-0.3,0-0.4s0-0.3,0-0.5l0,0l-0.1,0.4c0,0.1-0.1,0.3-0.1,0.3
	s-0.1,0.3-0.1,0.3l-1.3,3.2h-0.5l-1.3-3.2c0-0.1-0.1-0.3-0.1-0.3s-0.1-0.3-0.1-0.3l-0.1-0.3l0,0c0,0.2,0,0.3,0,0.5s0,0.3,0,0.4
	s0,0.3,0,0.4v3.1h-0.7v-5L358.1,21.5z"/>
<path class="st0" d="M365,21.5c0.3,0,0.7,0.1,1,0.2c0.3,0.1,0.5,0.3,0.8,0.5c0.2,0.3,0.3,0.5,0.4,0.8c0.1,0.3,0.2,0.7,0.2,1
	c0,0.3-0.1,0.7-0.2,1c-0.1,0.3-0.3,0.6-0.4,0.8c-0.2,0.3-0.4,0.4-0.8,0.5c-0.3,0.2-0.7,0.2-1,0.2h-1.8v-5L365,21.5z M365.7,25.8
	c0.2-0.1,0.3-0.3,0.5-0.3c0.2-0.2,0.3-0.4,0.3-0.6c0.1-0.3,0.1-0.5,0.1-0.8s0-0.6-0.1-0.8s-0.2-0.4-0.3-0.6
	c-0.2-0.2-0.3-0.3-0.5-0.4c-0.3-0.1-0.5-0.2-0.8-0.2h-1.2v3.8h1.1C365.2,25.9,365.5,25.8,365.7,25.8"/>
</svg>
