<?xml version="1.0" encoding="utf-8"?>
<!-- Generator: Adobe Illustrator 22.1.0, SVG Export Plug-In . SVG Version: 6.00 Build 0)  -->
<svg version="1.1" id="Layer_1" xmlns="http://www.w3.org/2000/svg" xmlns:xlink="http://www.w3.org/1999/xlink" x="0px" y="0px"
	 viewBox="0 0 339.5 62" style="enable-background:new 0 0 339.5 62;" xml:space="preserve">
<style type="text/css">
	.st0{fill:#221F20;}
</style>
<title>BBB.OriginalArtboard 1_1</title>
<g>
	<g>
		<path class="st0" d="M31,0.1c-0.6,0-1.3,0-1.9,0.1l0.1,1.7c0.6,0,1.2-0.1,1.8-0.1C47,1.7,60.2,14.8,60.2,31S47.1,60.3,30.9,60.3
			c-0.6,0-1.2,0-1.8-0.1l-0.1,1.7c0.6,0.1,1.3,0.1,1.9,0.1c17.2,0.3,31.2-13.4,31.4-30.4C62.7,14.4,49.1,0.3,32,0.1
			C31.6,0.1,31.3,0.1,31,0.1"/>
		<path class="st0" d="M1.8,32.8l-1.7,0.1c0.1,1.2,0.3,2.5,0.5,3.7l1.6-0.3C1.9,35.1,1.8,34,1.8,32.8"/>
		<path class="st0" d="M4.5,47c0.6,1.1,1.4,2.1,2.1,3l1.3-1c-0.7-0.9-1.4-1.9-2-3L4.5,47z"/>
		<path class="st0" d="M1.5,40.2c0.4,1.2,0.8,2.4,1.3,3.5l1.6-0.7c-0.5-1.1-0.9-2.1-1.2-3.3L1.5,40.2z"/>
		<path class="st0" d="M7.9,13L6.6,12c-0.7,1-1.5,2-2.1,3L6,15.9C6.5,14.8,7.2,13.9,7.9,13"/>
		<path class="st0" d="M2.1,25.7l-1.7-0.3c-0.3,1.2-0.4,2.5-0.5,3.7l1.7,0.1C1.8,28.1,1.9,26.9,2.1,25.7"/>
		<path class="st0" d="M4.2,19.1l-1.6-0.7c-0.6,1.2-0.9,2.3-1.3,3.5L3,22.3C3.3,21.2,3.8,20.1,4.2,19.1"/>
		<path class="st0" d="M14.9,57.4c1.1,0.6,2.1,1.2,3.3,1.8l0.7-1.6c-1.1-0.5-2.1-1-3.1-1.7L14.9,57.4z"/>
		<path class="st0" d="M12.9,8l-1-1.3c-1,0.7-1.9,1.7-2.8,2.5l1.2,1.2C11.1,9.6,12,8.7,12.9,8"/>
		<path class="st0" d="M21.8,60.6c1.2,0.4,2.4,0.7,3.6,0.9l0.3-1.7c-1.2-0.3-2.3-0.5-3.4-0.8L21.8,60.6z"/>
		<path class="st0" d="M25.6,2.2l-0.3-1.7c-1.2,0.3-2.5,0.6-3.6,0.9L22.3,3C23.3,2.6,24.5,2.4,25.6,2.2"/>
		<path class="st0" d="M18.9,4.3l-0.7-1.6C17,3.3,16,3.8,14.8,4.5l0.8,1.4C16.8,5.3,17.8,4.8,18.9,4.3"/>
		<path class="st0" d="M9.1,52.9c0.8,0.8,1.8,1.7,2.8,2.5l1-1.3c-0.9-0.7-1.8-1.5-2.6-2.3L9.1,52.9z"/>
	</g>
	<path class="st0" d="M96.1,38.8c-0.7-0.3-1.2-0.6-1.8-1.1c-0.6-0.6-0.9-1.2-1.1-1.9c-0.3-0.9-0.4-1.8-0.4-2.9v-0.3h2.3v0.3
		c0,0.7,0.1,1.4,0.2,2.1c0.1,0.5,0.3,0.9,0.6,1.3c0.3,0.3,0.6,0.6,1,0.7c0.5,0.2,0.9,0.3,1.5,0.3c0.7,0.1,1.7-0.3,2.2-0.7
		c0.6-0.7,0.8-1.7,0.7-2.6V20.2h2.4v14c0,0.7-0.1,1.4-0.3,2.1c-0.3,0.6-0.6,1.2-1,1.7c-0.5,0.5-1.1,0.8-1.7,1.1
		C99.1,39.3,97.6,39.3,96.1,38.8"/>
	<path class="st0" d="M109.9,38.6c-0.7-0.4-1.5-0.9-2.1-1.6c-0.6-0.7-1-1.5-1.3-2.2c-0.6-1.8-0.6-3.8,0-5.5c0.3-0.8,0.7-1.7,1.3-2.2
		c0.6-0.6,1.2-1.2,2.1-1.6c1.8-0.7,3.7-0.7,5.4,0c0.7,0.4,1.5,0.9,2.1,1.6c0.6,0.7,1,1.5,1.3,2.2c0.6,1.8,0.6,3.8,0,5.5
		c-0.3,0.8-0.7,1.7-1.3,2.2c-0.6,0.6-1.3,1.2-2.1,1.6C113.6,39.3,111.6,39.3,109.9,38.6 M114.5,36.9c0.6-0.3,1-0.7,1.4-1.2
		c0.4-0.6,0.7-1.1,0.8-1.7c0.4-1.4,0.4-2.9,0-4.2c-0.2-0.6-0.5-1.2-0.8-1.7s-0.8-0.8-1.4-1.2c-0.6-0.3-1.2-0.5-1.8-0.4
		c-0.7,0-1.3,0.2-1.9,0.4c-0.6,0.3-1,0.7-1.4,1.2c-0.4,0.6-0.7,1.1-0.8,1.7c-0.4,1.4-0.4,2.9,0,4.2c0.2,0.6,0.5,1.2,0.8,1.7
		c0.4,0.5,0.8,0.8,1.4,1.2c0.6,0.3,1.2,0.5,1.9,0.4C113.3,37.3,113.9,37.2,114.5,36.9"/>
	<path class="st0" d="M122.1,37.9c-1.1-0.9-1.7-2.1-1.7-3.5h2.1c0.1,0.6,0.3,1,0.5,1.5c0.3,0.4,0.6,0.7,0.8,0.9
		c0.4,0.3,0.7,0.4,1.2,0.5c0.5,0.1,0.9,0.2,1.4,0.2c0.8,0.1,1.7-0.2,2.4-0.6c0.5-0.4,0.7-1,0.7-1.7c0-0.3-0.1-0.7-0.2-0.9
		c-0.2-0.3-0.4-0.5-0.6-0.6c-0.3-0.3-0.7-0.4-1.1-0.5c-0.5-0.2-1-0.3-1.7-0.4c-0.7-0.2-1.3-0.3-1.9-0.5c-0.6-0.2-1.1-0.4-1.7-0.7
		c-0.5-0.3-0.8-0.7-1.2-1.2c-0.3-0.6-0.5-1.2-0.4-1.8c-0.1-1.1,0.5-2.1,1.2-2.7c1.1-0.7,2.3-1.1,3.6-1c1.4-0.1,2.8,0.3,3.9,1.2
		c0.8,0.7,1.5,1.9,1.6,3h-2.1c0-0.7-0.4-1.5-0.9-1.9c-0.7-0.5-1.5-0.7-2.3-0.6c-0.7-0.1-1.5,0.2-2.1,0.6c-0.4,0.3-0.6,0.8-0.6,1.4
		c0,0.3,0.1,0.6,0.3,0.9c0.2,0.3,0.5,0.5,0.7,0.6c0.4,0.2,0.7,0.3,1.2,0.4l1.6,0.3c0.7,0.2,1.3,0.3,1.9,0.5c0.6,0.2,1.1,0.4,1.7,0.7
		c0.5,0.3,0.8,0.7,1.1,1.2c0.3,0.6,0.5,1.2,0.4,1.9c0,0.6-0.2,1.2-0.4,1.8c-0.2,0.6-0.6,1-1.1,1.3c-0.6,0.4-1.1,0.6-1.7,0.7
		c-0.7,0.2-1.5,0.3-2.1,0.3C124.9,39.3,123.3,38.8,122.1,37.9"/>
	<path class="st0" d="M137.1,38.6c-0.7-0.4-1.5-0.8-2.1-1.6c-0.6-0.7-1-1.5-1.3-2.2c-0.6-1.8-0.6-3.8,0-5.5c0.3-0.8,0.7-1.7,1.3-2.2
		c0.6-0.6,1.2-1.2,2-1.6s1.7-0.6,2.6-0.6c0.9,0,1.8,0.2,2.7,0.6c0.7,0.4,1.5,0.8,1.9,1.6c0.6,0.7,0.9,1.6,1.2,2.4c0.3,1,0.4,2,0.4,3
		h-10.5c0,0.6,0.2,1.3,0.4,1.9c0.3,0.6,0.5,1.1,0.8,1.6c0.4,0.5,0.8,0.7,1.3,1c0.6,0.3,1.2,0.4,1.8,0.4c0.8,0,1.7-0.3,2.5-0.7
		c0.7-0.6,1.2-1.2,1.3-2.1h2.1c-0.3,1.3-0.9,2.6-2,3.4c-1.1,0.8-2.5,1.2-3.9,1.2C139,39.2,138,38.9,137.1,38.6 M138.1,26.8
		c-0.5,0.3-0.9,0.6-1.2,0.9c-0.4,0.4-0.6,0.8-0.8,1.4c-0.2,0.6-0.4,1.2-0.5,1.7h8.2c0-1.2-0.4-2.3-1.1-3.2c-0.7-0.7-1.8-1.2-2.9-1.2
		C139.2,26.5,138.5,26.5,138.1,26.8"/>
	<path class="st0" d="M161.4,20c0.7,0,1.6,0.2,2.2,0.4c1.3,0.5,2.3,1.4,2.9,2.7c0.3,0.7,0.4,1.4,0.4,2.1c0.1,1-0.3,2-0.7,3
		c-0.6,0.8-1.5,1.5-2.5,1.7v0.1c0.5,0.2,0.8,0.4,1.2,0.6c0.3,0.3,0.6,0.6,0.7,0.9c0.3,0.5,0.4,0.8,0.5,1.4c0.2,0.6,0.3,1.2,0.3,1.8
		c0.1,0.7,0.1,1.4,0.2,1.8c0.1,0.4,0.1,0.7,0.3,1.2c0.1,0.3,0.2,0.5,0.3,0.7c0.1,0.2,0.2,0.3,0.3,0.3v0.1h-2.6
		c-0.1-0.1-0.3-0.3-0.3-0.4c-0.1-0.3-0.2-0.5-0.2-0.7c-0.1-0.3-0.1-0.7-0.2-1.2c-0.1-0.6-0.1-1.2-0.2-1.9c0-1.1-0.3-2.1-1-3
		c-0.7-0.6-1.8-0.9-2.8-0.8h-5.3v7.9h-2.3V20H161.4z M160.6,28.9c1.1,0.1,2.1-0.3,3-0.9c0.7-0.7,1-1.6,1-2.6
		c0.1-0.9-0.3-1.8-0.8-2.6c-0.6-0.6-1.6-0.8-3-0.8H155v6.8L160.6,28.9L160.6,28.9z"/>
	<path class="st0" d="M172.4,38.6c-0.7-0.4-1.5-0.9-2.1-1.6c-0.6-0.7-1-1.5-1.3-2.2c-0.6-1.8-0.6-3.8,0-5.5c0.3-0.8,0.7-1.7,1.3-2.2
		c0.6-0.6,1.3-1.2,2.1-1.6c1.8-0.7,3.7-0.7,5.4,0c0.7,0.4,1.5,0.9,2.1,1.6c0.6,0.7,1,1.5,1.3,2.2c0.6,1.8,0.6,3.8,0,5.5
		c-0.3,0.8-0.7,1.7-1.3,2.2c-0.6,0.6-1.3,1.2-2.1,1.6C176.1,39.3,174.1,39.3,172.4,38.6 M177,36.9c0.6-0.3,1-0.7,1.4-1.2
		c0.4-0.6,0.7-1.1,0.8-1.7c0.4-1.4,0.4-2.9,0-4.2c-0.2-0.6-0.5-1.2-0.8-1.7c-0.4-0.5-0.8-0.8-1.4-1.2c-0.6-0.3-1.2-0.5-1.9-0.4
		c-0.7,0-1.3,0.2-1.9,0.4c-0.6,0.3-1,0.7-1.4,1.2c-0.4,0.6-0.7,1.1-0.8,1.7c-0.4,1.4-0.4,2.9,0,4.2c0.2,0.6,0.5,1.2,0.8,1.7
		c0.4,0.5,0.8,0.8,1.4,1.2c0.6,0.3,1.2,0.5,1.9,0.4C175.8,37.3,176.4,37.2,177,36.9"/>
	<path class="st0" d="M186.5,38.7c-0.7-0.3-1.4-0.8-1.9-1.5c-0.6-0.7-0.9-1.5-1.2-2.2c-0.3-0.9-0.5-1.9-0.4-3c0-1,0.2-2,0.5-3
		c0.3-0.8,0.7-1.7,1.2-2.2c0.6-0.6,1.2-1.1,1.9-1.4s1.6-0.5,2.3-0.5c0.8,0,1.8,0.3,2.6,0.6c0.7,0.4,1.3,0.9,1.7,1.7h0.1v-7.1h2.1V39
		h-2.1v-1.7h-0.1c-0.5,0.6-1.1,1.2-1.8,1.6c-0.7,0.4-1.7,0.6-2.5,0.6C188.1,39.2,187.3,39.1,186.5,38.7 M191.1,36.9
		c0.6-0.3,1-0.6,1.3-1.1c0.4-0.6,0.6-1.1,0.7-1.7c0.2-0.7,0.3-1.4,0.3-2.1c0-0.7-0.1-1.5-0.3-2.1s-0.5-1.2-0.8-1.7
		c-0.4-0.5-0.8-0.8-1.4-1.1c-0.6-0.3-1.2-0.4-1.8-0.4c-0.6,0-1.2,0.2-1.7,0.4c-0.5,0.3-0.9,0.7-1.2,1.2c-0.3,0.6-0.6,1.1-0.7,1.7
		c-0.3,1.4-0.3,2.9,0,4.2c0.2,0.6,0.4,1.2,0.7,1.7c0.3,0.5,0.7,0.8,1.2,1.1c0.6,0.3,1.1,0.4,1.7,0.4
		C189.7,37.4,190.4,37.3,191.1,36.9"/>
	<path class="st0" d="M200.4,27.4c0.4-0.7,1-1.2,1.7-1.7c0.7-0.5,1.6-0.7,2.4-0.7c0.2,0,0.3,0,0.5,0c0.2,0,0.3,0.1,0.4,0.2v2.1h-0.1
		c-0.2-0.1-0.3-0.1-0.5-0.1s-0.3,0-0.6,0c-1,0-2,0.4-2.8,1.1c-0.4,0.4-0.7,0.7-0.8,1.3c-0.3,0.6-0.3,1.2-0.3,1.7v7.6h-2.1V25.1h2.1
		L200.4,27.4L200.4,27.4z"/>
	<path class="st0" d="M209.4,38.7h-2.1V25.1h2.1V38.7z M211.3,19.7l-2,3.3h-1.8l1.2-3.3H211.3z"/>
	<path class="st0" d="M213.6,42.3c-0.9-0.6-1.6-1.7-1.7-2.8h2c0.1,0.7,0.6,1.3,1.2,1.7c0.8,0.3,1.7,0.6,2.6,0.5c1,0.1,2.1-0.3,3-0.8
		c0.7-0.7,1.1-1.7,1-2.6v-1.9h-0.1c-0.5,0.6-1,1.2-1.7,1.6c-0.7,0.4-1.6,0.6-2.4,0.6c-0.8,0-1.7-0.2-2.4-0.5
		c-0.7-0.3-1.4-0.7-1.8-1.4c-0.6-0.6-0.9-1.3-1.2-2.1c-0.6-1.8-0.6-3.7,0-5.5c0.3-0.7,0.7-1.5,1.2-2.1c0.6-0.6,1.2-1,1.8-1.3
		c0.7-0.3,1.5-0.5,2.2-0.5c0.8,0,1.7,0.2,2.5,0.6c0.7,0.4,1.2,0.9,1.7,1.6h0.1v-1.8h2.1v12.9c0,0.7-0.2,1.6-0.4,2.3
		c-0.3,0.6-0.7,1.2-1.2,1.7c-0.6,0.5-1.2,0.7-1.9,1c-0.7,0.3-1.7,0.3-2.5,0.3C216.3,43.4,214.9,42.9,213.6,42.3 M219.6,36.1
		c0.6-0.3,0.9-0.6,1.2-1.1s0.6-1,0.7-1.7c0.2-0.7,0.3-1.3,0.3-2c0.1-1.2-0.3-2.5-1-3.5c-0.7-0.9-1.9-1.4-3.1-1.3
		c-1.2-0.1-2.2,0.5-2.9,1.4c-0.7,1.1-1,2.3-0.9,3.5c-0.1,1.2,0.3,2.6,1,3.5c0.7,0.9,1.8,1.4,2.9,1.3
		C218.2,36.5,218.9,36.4,219.6,36.1"/>
	<path class="st0" d="M235.2,36.9L235.2,36.9c-0.6,0.6-1.1,1.2-1.7,1.7c-0.7,0.4-1.6,0.6-2.4,0.6c-1.2,0.1-2.4-0.4-3.3-1.2
		c-0.8-0.8-1.3-2.1-1.2-3.3v-9.5h2.1v9.3c-0.1,0.7,0.3,1.6,0.7,2.1c0.6,0.6,1.5,0.7,2.2,0.7c0.6,0,1-0.1,1.5-0.3
		c0.4-0.2,0.7-0.5,1.2-0.7c0.3-0.4,0.6-0.7,0.7-1.2c0.2-0.5,0.3-1,0.3-1.5v-8.3h2.1v13.6h-2.1L235.2,36.9z"/>
	<path class="st0" d="M243.3,38.6c-0.7-0.4-1.5-0.8-2.1-1.6c-0.6-0.7-1-1.5-1.3-2.2c-0.3-0.9-0.5-1.8-0.5-2.8c0-0.9,0.2-1.8,0.5-2.8
		c0.3-0.8,0.7-1.7,1.3-2.2c0.6-0.6,1.2-1.2,2-1.6c0.8-0.4,1.7-0.6,2.6-0.6c0.9,0,1.8,0.2,2.7,0.6c0.7,0.4,1.5,0.8,1.9,1.6
		c0.6,0.7,0.9,1.6,1.2,2.4c0.3,1,0.4,2,0.4,3h-10.5c0,0.7,0.2,1.3,0.3,2c0.3,0.6,0.5,1.1,0.8,1.6c0.4,0.5,0.8,0.7,1.3,1
		c0.6,0.3,1.2,0.4,1.8,0.4c0.8,0.1,1.7-0.3,2.5-0.7c0.7-0.6,1.2-1.2,1.3-2.1h2.1c-0.3,1.3-0.9,2.6-2,3.4s-2.5,1.2-3.9,1.2
		C245,39.2,244,39,243.3,38.6 M244.2,26.9c-0.5,0.3-0.9,0.6-1.2,0.9c-0.4,0.4-0.6,0.9-0.8,1.4c-0.3,0.6-0.4,1.2-0.5,1.7h8.2
		c0-1.2-0.4-2.3-1.2-3.2c-0.7-0.7-1.8-1.2-2.9-1.2C245.3,26.5,244.7,26.6,244.2,26.9"/>
	<polygon class="st0" points="260.7,27.1 260.7,27 253.6,27 253.6,25.1 263.7,25.1 263.7,26.5 255.9,36.8 255.9,36.9 264,36.9 
		264,38.7 253.2,38.7 253.2,37.1 	"/>
	<rect x="265.1" y="30.6" class="st0" width="7" height="1.9"/>
	<polygon class="st0" points="287.6,20 287.6,22.1 277.3,22.1 277.3,27.9 285.9,27.9 285.9,29.9 277.3,29.9 277.3,38.7 274.9,38.7 
		274.9,20 	"/>
	<path class="st0" d="M291.6,38.6c-0.7-0.4-1.5-0.8-2.1-1.6c-0.6-0.7-1-1.5-1.3-2.2c-0.3-0.9-0.5-1.8-0.5-2.8c0-0.9,0.2-1.8,0.5-2.8
		c0.3-0.8,0.7-1.7,1.3-2.2c0.6-0.6,1.2-1.2,2-1.6s1.7-0.6,2.6-0.6s1.8,0.2,2.7,0.6c0.7,0.4,1.5,0.8,1.9,1.6c0.6,0.7,0.9,1.6,1.2,2.4
		c0.3,1,0.4,2,0.4,3h-10.5c0,0.6,0.2,1.3,0.4,1.9c0.3,0.6,0.5,1.1,0.8,1.6c0.4,0.5,0.8,0.7,1.3,1c0.6,0.3,1.2,0.4,1.8,0.4
		c0.8,0,1.7-0.3,2.5-0.7c0.7-0.6,1.2-1.2,1.3-2.1h2.1c-0.3,1.3-0.9,2.6-2,3.4c-1.1,0.8-2.5,1.2-3.9,1.2
		C293.5,39.2,292.4,38.9,291.6,38.6 M292.5,26.8c-0.5,0.3-0.9,0.6-1.2,0.9c-0.4,0.4-0.6,0.8-0.8,1.4c-0.3,0.6-0.4,1.2-0.5,1.7h8.2
		c0-1.2-0.4-2.3-1.2-3.2c-0.7-0.7-1.8-1.2-2.9-1.2C293.7,26.5,293.2,26.5,292.5,26.8"/>
	<rect x="302.7" y="20" class="st0" width="2.1" height="18.8"/>
	<path class="st0" d="M309.9,22.7h-2.1v-2.6h2.1V22.7z M309.9,38.8h-2.1V25.1h2.1V38.8z"/>
	<polygon class="st0" points="319.8,27.1 319.8,27 312.6,27 312.6,25.1 322.8,25.1 322.8,26.5 314.9,36.8 314.9,36.9 323.1,36.9 
		323.1,38.7 312.3,38.7 312.3,37.1 	"/>
	<path class="st0" d="M330.9,19.9l1,2.6c0.1,0.2,0.1,0.3,0.2,0.5l0.2,0.5l0.2,0.6l0,0c0.1-0.2,0.1-0.4,0.2-0.6l0.2-0.5
		c0.1-0.2,0.1-0.3,0.2-0.5l0.9-2.6h0.8v4.6h-0.6v-2.9c0-0.1,0-0.3,0-0.4s0-0.3,0-0.4s0-0.3,0-0.5l0,0l-0.1,0.4
		c0,0.1-0.1,0.3-0.1,0.3l-0.1,0.3l-1.2,3h-0.5l-1.2-3c0-0.1-0.1-0.3-0.1-0.3l-0.1-0.3l-0.1-0.3l0,0c0,0.2,0,0.3,0,0.5s0,0.3,0,0.4
		c0,0.1,0,0.3,0,0.4v2.9h-0.6V20L330.9,19.9z"/>
	<path class="st0" d="M337.3,19.9c0.3,0,0.6,0.1,0.9,0.2c0.3,0.1,0.5,0.3,0.7,0.5c0.2,0.3,0.3,0.5,0.4,0.7s0.2,0.6,0.2,0.9
		s-0.1,0.6-0.2,0.9s-0.3,0.6-0.4,0.7c-0.2,0.3-0.4,0.4-0.7,0.5c-0.3,0.2-0.6,0.2-0.9,0.2h-1.7v-4.6H337.3z M337.9,23.9
		c0.2-0.1,0.3-0.3,0.5-0.3c0.2-0.2,0.3-0.4,0.3-0.6c0.1-0.3,0.1-0.5,0.1-0.7s0-0.6-0.1-0.7c-0.1-0.2-0.2-0.4-0.3-0.6
		c-0.2-0.2-0.3-0.3-0.5-0.4c-0.3-0.1-0.5-0.2-0.7-0.2h-1.1v3.5h1C337.4,23.9,337.7,23.9,337.9,23.9"/>
</g>
</svg>
